<?xml version="1.0" encoding="UTF-8"?>
<!DOCTYPE svg PUBLIC "-//W3C//DTD SVG 1.1//EN" "http://www.w3.org/Graphics/SVG/1.1/DTD/svg11.dtd">
<!-- Creator: CorelDRAW 2021 (64-Bit) -->
<svg xmlns="http://www.w3.org/2000/svg" xml:space="preserve" width="41.2479mm" height="58.1523mm" version="1.1" style="shape-rendering:geometricPrecision; text-rendering:geometricPrecision; image-rendering:optimizeQuality; fill-rule:evenodd; clip-rule:evenodd"
viewBox="0 0 1422.25 2005.12"
 xmlns:xlink="http://www.w3.org/1999/xlink"
 xmlns:xodm="http://www.corel.com/coreldraw/odm/2003">
 <defs>
  <style type="text/css">
   <![CDATA[
    .fil0 {fill:#ED3237}
   ]]>
  </style>
 </defs>
 <g id="Capa_x0020_1">
  <metadata id="CorelCorpID_0Corel-Layer"/>
  <g id="_2562626882048">
   <path class="fil0" d="M410.33 1950.14l0 -182.96c0,0 94.84,10.53 109.2,5.74 14.37,-4.79 -85.22,-21.37 -210.81,-208.65 -125.59,-187.28 -185.08,-291.94 -196.1,-321.68 -11.02,-29.75 22.05,-101.09 22.05,-101.09 0,0 -34.65,-58.58 -34.01,-112.12 0,0 -77.47,73.42 -98.41,273.94 -20.94,200.52 103.44,521.32 408.08,646.82z"/>
   <path class="fil0" d="M681.94 1805.12c0,0 56.7,5.03 59.85,66.15 3.15,61.11 3.15,132.31 7.56,133.56 4.41,1.26 23.31,-1.89 27.72,-4.41 4.41,-2.52 2.52,-112.77 28.35,-153.09 25.83,-40.32 28.98,-31.5 28.98,-31.5 0,0 -76.86,-8.82 -152.46,-10.71z"/>
   <path class="fil0" d="M994.57 1789.2l14.17 159.16c0,0 303.69,-120.98 391.14,-428.51 87.45,-307.53 -103.84,-534.4 -190.03,-651.01 -86.18,-116.61 -145.76,-254.76 -87.45,-344.75 0,0 -139.42,38.03 -158.43,216.73 0,0 -50.28,-28.97 -1.68,-142.95 48.61,-113.99 55.01,-183.69 -7.29,-243.11 0,0 20.12,104.48 -88.18,140.89 0,0 47.92,-90.09 23,-167.72 -24.92,-77.64 -145.6,-133.7 -176.76,-228.65 -31.16,-94.94 -9.42,-99.29 -9.42,-99.29 0,0 -79,27.54 -80.45,114.51 -1.45,86.97 75.37,131.19 3.62,221.05 -71.75,89.87 -65.62,105.81 -56.45,163.32 9.17,57.51 8.33,68.35 8.33,68.35 0,0 62.89,7.33 84.81,61.59 21.92,54.27 -17,101.4 -48.78,145.8 -31.79,44.4 -67.97,89.89 -67.97,89.89l-194.49 -52.91 174.75 -232.46c0,0 -57.93,-54.35 -64.86,-144.51 -6.93,-90.16 10.72,-109.08 10.72,-109.08 0,0 -106.86,42.52 -123.53,136.06 -16.68,93.54 15.95,198.67 -18.85,242.91 -34.8,44.23 -42.78,-41.33 -42.78,-41.33 0,0 -75.65,35.69 -124.97,140.85 -49.31,105.15 -26.31,223.89 11.53,291.37 0,0 138.75,-194.25 152.62,-211.9 13.87,-17.65 363.88,71.26 389.74,83.25 25.86,11.98 40.36,38.47 21.44,81.99 -18.92,43.51 -72.52,104.06 -110.99,110.36 -38.47,6.31 -168.39,-22.71 -168.39,-22.71 0,0 -18.29,-63.06 -38.47,-88.92 -20.18,-25.86 -20.18,-25.86 -20.18,-25.86 0,0 24.59,102.17 4.41,150.1 -20.18,47.93 -56.13,79.46 -56.13,79.46 0,0 109.35,-57.65 186.97,-9.78 77.61,47.87 190.36,106.18 213.69,160.43 23.33,54.24 24.59,202.47 24.59,202.47 0,0 25.86,-55.51 27.13,-135.62 1.26,-80.11 1.26,-80.11 1.26,-80.11l198.05 129.94c0,0 55.51,34.69 102.81,-7.57 47.31,-42.26 72.54,-87.05 72.54,-87.05 0,0 72.53,173.98 -180.82,365.3zm131.87 -709.94l-171.99 234.61c0,0 -44.22,45.23 18.79,94.88 63.02,49.65 97.39,60.15 131.28,10.5 33.89,-49.65 168.12,-239.98 168.12,-239.98 0,0 29.27,-31.98 -5.26,-65.25 -34.53,-33.28 -55.57,-45.52 -55.57,-45.52 0,0 -55.57,-27 -85.37,10.76zm-193.25 -160.75l-183.61 249.66c0,0 -45.63,52.67 2.12,94.93 47.75,42.26 47.75,42.26 47.75,42.26 0,0 59.82,35.68 105.37,-33.48 45.56,-69.15 182.12,-259.51 182.12,-259.51 0,0 32.53,-43.17 -8.98,-77.45 -41.5,-34.29 -55.58,-41.87 -55.58,-41.87 0,0 -49.09,-23.1 -89.19,25.47zm-299.23 -32.3l193.05 46.05 66.23 -93.28c0,0 25.14,-35.08 -8.47,-76.98 -33.61,-41.9 -107.45,-64.31 -142.73,-18.26 -35.27,46.06 -108.08,142.47 -108.08,142.47z"/>
  </g>
 </g>
</svg>
