<?xml version="1.0" encoding="UTF-8"?>
<!DOCTYPE svg PUBLIC "-//W3C//DTD SVG 1.1//EN" "http://www.w3.org/Graphics/SVG/1.1/DTD/svg11.dtd">
<!-- Creator: CorelDRAW 2021 (64-Bit) -->
<svg xmlns="http://www.w3.org/2000/svg" xml:space="preserve" width="63.5892mm" height="58.8268mm" version="1.1" style="shape-rendering:geometricPrecision; text-rendering:geometricPrecision; image-rendering:optimizeQuality; fill-rule:evenodd; clip-rule:evenodd"
viewBox="0 0 988.38 914.36"
 xmlns:xlink="http://www.w3.org/1999/xlink"
 xmlns:xodm="http://www.corel.com/coreldraw/odm/2003">
 <defs>
  <style type="text/css">
   <![CDATA[
    .fil0 {fill:#00AFEF}
   ]]>
  </style>
 </defs>
 <g id="Capa_x0020_1">
  <metadata id="CorelCorpID_0Corel-Layer"/>
  <g id="_2563231428928">
   <path class="fil0" d="M494.19 66.41c214.56,0 388.49,173.94 388.49,388.49 0,214.56 -173.94,388.49 -388.49,388.49 -214.56,0 -388.49,-173.94 -388.49,-388.49 0,-214.56 173.94,-388.49 388.49,-388.49zm111.78 254.29c-23.95,-1.64 1.16,-13.75 -34.89,-16.52l5.87 -29.61 -13.08 7.68c0.53,-14.53 5.35,-42.4 -4.25,-51.34 -5.9,5.22 -6.93,11.35 -13.3,17.32 -8.88,-14.61 -0.79,-41.4 -26.61,-58.83 -2.55,3.28 -3.82,9 -6.35,13.83 -4.79,9.15 -11.37,15.67 -17.97,23.89l-6.76 8.51c-2.25,2.29 -1.01,1.28 -3.13,2.75 -5.22,-6.97 -4.13,-16.49 -4.42,-26.25 -13.66,3.46 -17.05,29.94 -20.18,46.73 -8.65,-3.21 -14.27,-11.44 -18.76,-18.53 -10.7,12.21 -0.25,38.3 1.74,53.13l-11.35 -3.68c0.58,6.84 3.56,11.77 5.35,17.26 -12.29,-1.54 -26.02,-0.28 -34.48,6.72 -5.2,4.3 -4.09,6.24 -8.65,12.27 -3.68,4.86 -6.16,5.61 -11.56,9.37 -12.35,8.59 -7.67,16.9 -19.24,22.55 -6.11,2.98 -8.84,2.54 -13.62,7.24 -3.56,3.51 -5.03,8.03 -9.37,11.19 -9.56,-9.4 -17.05,-13.74 -16.94,-33.7 0.08,-14.59 10.07,-30.84 -0.05,-43.68 -6.96,-2.93 -14.48,-1.53 -22.89,-3.75 -9.19,-2.42 -14.2,-5.63 -21.23,-0.5 -10.55,10.18 3.03,137.75 50.52,143.84 12.41,1.59 23.02,-0.87 32.36,-5.93 18.88,-10.22 28.55,-21.41 50.56,-30.19 4.24,3.96 8.23,15.73 12.24,21.1 28.49,38.16 27.21,34.05 -43.5,100.71 -43.89,41.37 -31.16,66.03 -49.75,92.73 -10.5,15.08 -18.31,27.55 -23.48,48.7 -5.54,22.7 -8.85,9.49 -14.84,21.28 -10.48,20.6 5.68,41.42 -28.26,79.3 4.78,7.43 25.91,19.33 42.48,27.91 1.7,-1.98 3.34,-4.09 4.9,-6.42 9.3,-13.87 16.41,-29.79 25.99,-42.35 10.19,-13.37 23.78,-20.95 23.08,-45.6 9.23,-5.34 23.23,-16.85 30.68,-24.23 10.01,-9.92 0.52,-35.6 11.94,-45.07 6.59,-5.47 10.84,-6.8 16.25,-12.17 29.87,-29.66 47.12,-79.17 100.37,-64.55 16.46,4.52 16.75,36.98 54.78,59.19 6.4,3.74 13.5,5.76 18.48,10.07 1.95,25.04 7.79,41.71 20.48,57.41 8.25,10.21 9.11,10.26 13.21,24.77 4.2,14.9 29.38,71.04 35.8,82.08 0.52,0.9 1.08,1.75 1.66,2.56 7.86,-1.55 17.16,-3.87 21.65,-6.81 8.63,-5.63 16.22,-21.96 16.22,-21.96 -2.86,-13.18 -7.55,-25.43 -9.97,-39.53 -1.61,-9.36 -1.53,-35.88 -5.32,-42.16 -4.2,-6.98 -5.68,-2.98 -9.27,-15.42 -4.78,-16.57 -16.24,-43.82 -17.88,-54.09 -4.1,-25.77 -5.82,-16.52 -15.09,-34.51 -5.7,-11.06 -9.33,-21.3 -15.04,-32.49 -8.91,-17.46 -40.48,-42.41 -41.93,-51 12.87,-2.67 36.69,-0.91 49.48,1.79 19.76,4.17 21.22,8.56 29.84,17.62 2.43,2.55 0.53,1.05 3.24,2.8 15.85,-18.27 0.12,-32.94 -17.16,-38.41 -23.84,-7.55 -37.11,-3.35 -60.5,-2.65 22.02,-12.34 40.98,-12.91 65.98,-20.39 -3.29,-8.83 -8.94,-11.22 -13.04,-16.73 -31.8,-7.25 -51.16,25.73 -86.15,27.24 3.56,-27.1 9.62,-29.45 24.81,-52.65l7.32 -11.72c1.54,-2.14 1.53,-2.07 2.71,-3.26 5.88,3.64 16.5,15.96 23.91,22.02 6.41,5.25 25.53,14.11 28.34,17.27 9.94,-0.57 21.12,3.27 31.04,-1.3 24.14,-11.13 18.46,-42.92 27.2,-69.68 5.84,-17.88 21.44,-25.46 14.89,-47.71 -2.78,-9.43 -6.49,-14.88 -16.91,-15.82 -4.95,-0.45 -26.21,-0.88 -29.02,-0.3 -10.81,7.2 -9.38,29.45 -4.19,39.64 7.7,15.13 -1.26,23.88 -6.21,35.83 -6.86,-3.1 -6.51,-4.98 -12.09,-10.02 -6.14,-5.53 -6.4,-3.67 -12.02,-7.02 -9.26,-5.51 0.43,-0.37 -11.28,-19.01 -13.49,-14.94 -23.39,-18.76 -23.39,-18.76l0 -0z"/>
   <path class="fil0" d="M494.19 13.09c244.01,0 441.81,197.81 441.81,441.81 0,244.01 -197.81,441.81 -441.81,441.81 -244.01,0 -441.81,-197.81 -441.81,-441.81 0,-244.01 197.81,-441.81 441.81,-441.81zm0 27.33c228.92,0 414.49,185.57 414.49,414.49 0,228.92 -185.57,414.49 -414.49,414.49 -228.92,0 -414.49,-185.57 -414.49,-414.49 0,-228.92 185.57,-414.49 414.49,-414.49z"/>
   <path class="fil0" d="M707.51 0c144.52,67.9 251.42,202.62 280.86,364.38l-31.64 0c-28.08,-144.3 -122,-265.06 -249.23,-329.77l0 -34.6zm-426.65 34.6c-127.22,64.71 -221.14,185.47 -249.22,329.77l-31.64 0c29.44,-161.75 136.34,-296.48 280.86,-364.38l0 34.6z"/>
   <path class="fil0" d="M707.51 914.36c144.52,-67.9 251.42,-202.62 280.86,-364.38l-31.64 0c-28.08,144.3 -122,265.06 -249.23,329.77l0 34.6zm-426.65 -34.6c-127.22,-64.71 -221.14,-185.47 -249.22,-329.77l-31.64 0c29.44,161.75 136.34,296.48 280.86,364.38l0 -34.6z"/>
  </g>
 </g>
</svg>
