<?xml version="1.0" encoding="UTF-8"?>
<!DOCTYPE svg PUBLIC "-//W3C//DTD SVG 1.1//EN" "http://www.w3.org/Graphics/SVG/1.1/DTD/svg11.dtd">
<!-- Creator: CorelDRAW 2021 (64-Bit) -->
<svg xmlns="http://www.w3.org/2000/svg" xml:space="preserve" width="59.0574mm" height="58.8268mm" version="1.1" style="shape-rendering:geometricPrecision; text-rendering:geometricPrecision; image-rendering:optimizeQuality; fill-rule:evenodd; clip-rule:evenodd"
viewBox="0 0 623.77 621.33"
 xmlns:xlink="http://www.w3.org/1999/xlink"
 xmlns:xodm="http://www.corel.com/coreldraw/odm/2003">
 <defs>
  <style type="text/css">
   <![CDATA[
    .fil0 {fill:#D2D3D5}
   ]]>
  </style>
 </defs>
 <g id="Capa_x0020_1">
  <metadata id="CorelCorpID_0Corel-Layer"/>
  <g id="_2563230155568">
   <path class="fil0" d="M29.24 274.12c11.35,2.64 13.79,0.46 25.96,9.37 6.72,4.92 12.9,12.5 16.7,19.85 23.95,46.41 15.98,130.73 -28.88,146.59 -5.5,1.94 -13.78,0.76 -13.78,5.72l0 103.55c0,4.83 9.35,5.35 14.31,6.4l256.15 55.74 0 -404.48 -202.15 -43.95c-11.2,-2.31 -22.14,-5.02 -33.89,-7.53 -5.13,-1.09 -10.9,-2.33 -17.07,-3.65 -4.6,-0.98 -11.65,-3.23 -17.35,-3.36l0 115.74z"/>
   <path class="fil0" d="M324.07 216.86l0 404.48 67.01 -14.62c53.51,-12.65 114.64,-25.08 169.86,-37.25 6.46,-1.42 10.61,-2.24 17.01,-3.7 5.02,-1.15 13.01,-2.42 16.58,-4.13l0 -109.65c-62.01,-5.16 -65.66,-103.26 -43.07,-147.84 2.66,-5.25 3.9,-6.67 7.35,-10.93 13.51,-16.67 20.53,-15.57 35.72,-19.11l0 -115.74c-5.46,0.12 -11.09,1.97 -16.35,3.14l-254.11 55.34z"/>
   <path class="fil0" d="M148.63 143.76c0,18.97 -3.14,14.37 17.57,18.98l62.1 13.44c14.09,3.22 27.43,6.15 41.06,8.89 56.76,11.41 27.16,11.95 84.04,0.2l103.17 -22.31c3.05,-0.65 6.13,-1.5 9.97,-2.21 10.02,-1.86 8.6,0.39 8.6,-16.98 0,-35.26 -23.29,-78.05 -48.44,-100.2 -27.84,-24.52 -68.69,-43.56 -105.07,-43.56 -33.46,0 -47.65,1.44 -79.37,14.44 -31.83,13.05 -62.27,40.79 -77.39,71.24 -7.2,14.5 -16.24,37.17 -16.24,58.07z"/>
   <path class="fil0" d="M562.86 361.84c0,19.96 4.31,41.84 15.28,56.6 14.02,18.88 29.8,6.26 38.33,-12.75 4.47,-9.96 6.79,-22.33 7.31,-35.05l0 -11.3c-1.22,-30.5 -12.14,-59.63 -28.02,-59.63 -7.3,0 -10.49,-0.49 -18.49,9.53 -9.04,11.33 -14.41,36.85 -14.41,52.6z"/>
   <path class="fil0" d="M-0 358.18c0,19.89 2.16,47.56 15.48,61.27 17.92,18.45 31.04,2.13 38.33,-15.99 9,-22.38 9.41,-55.79 0.51,-78.89 -2.24,-5.82 -3.81,-10.06 -7.28,-14.65 -22.28,-29.47 -47.04,8.01 -47.04,48.26z"/>
  </g>
 </g>
</svg>
