<?xml version="1.0" encoding="UTF-8"?>
<!DOCTYPE svg PUBLIC "-//W3C//DTD SVG 1.1//EN" "http://www.w3.org/Graphics/SVG/1.1/DTD/svg11.dtd">
<!-- Creator: CorelDRAW 2021 (64-Bit) -->
<svg xmlns="http://www.w3.org/2000/svg" xml:space="preserve" width="62.3914mm" height="40.4189mm" version="1.1" style="shape-rendering:geometricPrecision; text-rendering:geometricPrecision; image-rendering:optimizeQuality; fill-rule:evenodd; clip-rule:evenodd"
viewBox="0 0 555.48 359.85"
 xmlns:xlink="http://www.w3.org/1999/xlink"
 xmlns:xodm="http://www.corel.com/coreldraw/odm/2003">
 <defs>
  <style type="text/css">
   <![CDATA[
    .fil0 {fill:#005500}
    .fil1 {fill:#005500;fill-rule:nonzero}
   ]]>
  </style>
 </defs>
 <g id="Capa_x0020_1">
  <metadata id="CorelCorpID_0Corel-Layer"/>
  <g id="_2563231950544">
   <g>
    <path class="fil0" d="M273.97 213.35c0.28,0.42 3.48,18.57 14.1,1.74l42.64 -57.78c2.97,-3.19 4.03,-4.88 6.74,-7.96 4.33,-4.91 9.34,-9.35 14.07,-14.09 3.72,-3.72 25.16,-24.63 30.22,-26.03l-48.26 59.44c-13.25,20.03 -18.59,27.66 -30.13,50.71 -2.69,5.38 -8.01,11.87 -4.9,18.45 25.38,5.84 57.41,-7.75 72.59,-16.9l26.89 -18.43c4.31,-3.52 8.04,-7.13 12.59,-10.68 4.7,-3.68 7.58,-7.55 11.73,-10.32 2.9,-4.35 20.58,-21.98 26.22,-30.13 16.54,-23.9 28.43,-43.34 37.05,-73.19 2.31,-8 3.82,-13.85 5.79,-22.38 1,-4.3 1.44,-6.91 2.15,-11.33 0.4,-2.51 0.45,-3.63 0.94,-6.41l1.33 -4.76c-0.09,-6.05 0.69,-13.14 -1.23,-17.24 -5.2,-5.24 -70.22,9.67 -82.89,13.93 -83.15,27.97 -137.59,93.06 -137.66,183.35z"/>
    <path class="fil0" d="M118.86 238.64c25.13,27.09 61.09,56.42 98.71,64.12 13.69,2.8 17.52,0.91 28.33,1.15 2.82,-4.08 3.48,-3.9 0.95,-9.41l-13.57 -25.74c-10.92,-19.52 -28.73,-45.48 -43.4,-61.94l-24.81 -27.76c6.8,1.88 23.67,20.1 29.01,24.79 2.77,2.43 4.88,3.29 7.3,6.16 2.66,3.15 2.97,4.19 6.14,7.34 5.05,5.02 7.6,8.24 12.26,13.46 10.43,11.71 24.61,31.86 33.88,45.73 7.42,11.1 4.99,11.52 14.3,11.52 3.9,-16.84 2.84,-29.73 0.03,-46.62 -2.2,-13.22 -11.34,-35.82 -17.99,-46.94 -8.45,-14.11 -16,-24.72 -26.48,-37.21 -3.14,-3.74 -9.14,-9.67 -12.82,-12.91 -19.72,-17.35 -40,-28.71 -65.69,-37.21 -12.31,-4.07 -79.49,-21 -85.34,-15.16 1.43,82.38 52.98,138.64 59.22,146.64z"/>
    <path class="fil0" d="M257.61 141.69c5.76,-3.56 -7.96,-24.44 -10.1,-28.02 -16.94,-28.32 -24.26,-31.97 -35.91,-48.52 6.17,1.7 26.65,25.56 32.04,31.55l20 27.76c5.68,8.15 3.6,6.7 9.19,6.83 4.05,-8.52 1.74,-26.6 -0.79,-36.02 -4.4,-16.4 -9.98,-22.68 -11.46,-28.92 -3.49,-2.28 -7.97,-11.27 -13.88,-18.03 -16.05,-18.35 -29.84,-28.98 -55.55,-37.48 -14.22,-4.7 -23.58,-7.31 -38.62,-9.12 -17.25,-2.08 -20.85,-4.56 -18.86,7.68 6.79,41.8 30.07,106.9 123.93,132.29z"/>
   </g>
   <path class="fil1" d="M464.42 174.96c44.66,17.19 72.02,40.97 72.02,67.74 0,27.97 -29.85,52.67 -78.1,70.01 -46.35,16.65 -110.21,26.95 -180.6,26.95 -70.38,0 -134.24,-10.3 -180.6,-26.95 -48.25,-17.34 -78.1,-42.04 -78.1,-70.01 0,-20.58 16.17,-39.4 43.94,-54.81l0 14.33c-19.96,12.17 -31.38,26.01 -31.38,40.48 0,22.11 26.66,42.75 69.76,58.23 45,16.17 107.35,26.17 176.38,26.17 69.02,0 131.37,-10 176.38,-26.17 43.1,-15.48 69.76,-36.12 69.76,-58.23 0,-20.29 -22.45,-39.34 -59.45,-54.3l0 -13.44z"/>
   <path class="fil1" d="M464.42 167.09c2.54,0.91 5.04,1.83 7.49,2.77l0.01 -0.02c51.63,19.81 83.56,47.89 83.56,79.54 0,31.63 -31.93,59.7 -83.56,79.52 -49.84,19.13 -118.5,30.96 -194.18,30.96 -75.68,0 -144.34,-11.83 -194.18,-30.96 -51.62,-19.82 -83.56,-47.89 -83.56,-79.52 0,-27.2 23.58,-51.76 62.98,-70.7l0 13.97c-31.68,16.21 -50.42,35.86 -50.42,56.73 0,25.92 28.84,49.94 75.46,67.84 48.41,18.58 115.48,30.08 189.72,30.08 74.24,0 141.3,-11.49 189.72,-30.08 46.62,-17.9 75.46,-41.92 75.46,-67.84 0,-25.9 -28.84,-49.92 -75.46,-67.81l0 -0.02c-1,-0.38 -2.02,-0.76 -3.04,-1.14l0 -13.31z"/>
  </g>
 </g>
</svg>
