<?xml version="1.0" encoding="UTF-8"?>
<!DOCTYPE svg PUBLIC "-//W3C//DTD SVG 1.1//EN" "http://www.w3.org/Graphics/SVG/1.1/DTD/svg11.dtd">
<!-- Creator: CorelDRAW 2021 (64-Bit) -->
<svg xmlns="http://www.w3.org/2000/svg" xml:space="preserve" width="63.7823mm" height="60.8195mm" version="1.1" style="shape-rendering:geometricPrecision; text-rendering:geometricPrecision; image-rendering:optimizeQuality; fill-rule:evenodd; clip-rule:evenodd"
viewBox="0 0 2743.45 2616.01"
 xmlns:xlink="http://www.w3.org/1999/xlink"
 xmlns:xodm="http://www.corel.com/coreldraw/odm/2003">
 <defs>
  <style type="text/css">
   <![CDATA[
    .fil0 {fill:#00A859}
   ]]>
  </style>
 </defs>
 <g id="Capa_x0020_1">
  <metadata id="CorelCorpID_0Corel-Layer"/>
  <g id="_2563234859568">
   <path class="fil0" d="M1086.53 745c26.31,48.95 10.68,1354.45 10.68,1594.93 0,310.83 -43.22,272.78 265.38,272.78 302.45,0 265.39,40.97 265.39,-262.55 0,-222.09 -14.7,-1578 10.85,-1605.16 32.95,-35.03 299.82,29.13 198.47,-126.73 -46.61,-71.67 -104.19,-146.5 -153.92,-214.46 -356.58,-487.34 -278.64,-500.97 -488.09,-214.53l-302.89 423.06c-28.51,41.09 -36.03,101.94 25.72,115.61 55.28,12.25 119.37,-14.42 168.4,17.05z"/>
   <path class="fil0" d="M215.46 1419.78c25.27,47 8.79,917.84 10.15,1094.61 0.97,126.16 48.58,98.32 265.93,98.32 324.69,0 265.38,72.89 265.38,-467.04 0,-914.45 -44.46,-710.12 170.98,-741.69 149.35,-21.88 -44.09,-227.71 -115.57,-325.4 -356.58,-487.34 -278.64,-500.96 -488.08,-214.53l-302.9 423.06c-28.51,41.09 -36.02,101.94 25.72,115.61 55.28,12.24 119.37,-14.42 168.4,17.05z"/>
   <path class="fil0" d="M1975.85 1419.78c25.26,47 8.78,917.84 10.15,1094.61 0.56,72.88 8.65,96.06 81.55,98.72l368.75 0c72.59,-2.65 80.92,-26.02 81.54,-98.71 1.38,-160.76 -14.5,-1068.24 10.32,-1094.62 46.15,-29.45 105.97,-7.86 160.12,-15.79 149.34,-21.88 -44.09,-227.71 -115.57,-325.4 -52.14,-71.25 -96.63,-138.03 -148.97,-208.9 -215.34,-291.59 -132.35,-282.84 -492.44,209.11 -69.62,95.13 -254.42,295 -123.85,323.93 55.28,12.24 119.37,-14.42 168.4,17.05z"/>
  </g>
 </g>
</svg>
