<?xml version="1.0" encoding="UTF-8"?>
<!DOCTYPE svg PUBLIC "-//W3C//DTD SVG 1.1//EN" "http://www.w3.org/Graphics/SVG/1.1/DTD/svg11.dtd">
<!-- Creator: CorelDRAW 2021 (64-Bit) -->
<svg xmlns="http://www.w3.org/2000/svg" xml:space="preserve" width="53.5592mm" height="60.8184mm" version="1.1" style="shape-rendering:geometricPrecision; text-rendering:geometricPrecision; image-rendering:optimizeQuality; fill-rule:evenodd; clip-rule:evenodd"
viewBox="0 0 972.81 1104.66"
 xmlns:xlink="http://www.w3.org/1999/xlink"
 xmlns:xodm="http://www.corel.com/coreldraw/odm/2003">
 <defs>
  <style type="text/css">
   <![CDATA[
    .fil0 {fill:#E1D95A}
   ]]>
  </style>
 </defs>
 <g id="Capa_x0020_1">
  <metadata id="CorelCorpID_0Corel-Layer"/>
  <path class="fil0" d="M972.81 334.99l-4.81 -10.74 -32 44.8c-0.01,6.89 -2.96,3.48 -5.46,10.76 -3.94,3.46 -7.75,8.05 -11.5,12.98l-0.02 0.02 0 -0c-6.04,7.96 -11.94,16.82 -18.01,23.31 -16.8,17.97 -39.45,49.01 -56.88,69.47l-10.72 14.1c-16.68,22.42 -37,43.66 -54.2,65.71 -3.56,4.56 -6.6,8.92 -10.47,13.1 -4.61,4.98 -5.77,10.65 -12.38,11.92 0.36,-18.94 13.97,-46.99 17.95,-66.65 1.85,-9.1 2.34,-12.09 5.57,-19.43l20.17 -76.21c1.25,-5.26 0.14,-0.71 1.24,-3.78 7.46,-20.69 11.74,-45.48 17.5,-66.75 1.52,-5.6 3.11,-10.68 3.8,-17.58 0.92,-9.15 3.71,-5.3 3.63,-12.3 -0.07,-6.4 0.09,-2.04 -1.38,-4.03 -4.71,2.65 -5.08,10.52 -9.82,12.6 -0.11,-9.17 6.9,-25.05 3.63,-29.52 -2.17,1.68 -5.86,8.89 -7.72,12.01l-95.33 142.21c-2.89,3.95 -5.94,7.09 -8.83,11.03l-11.96 17.65c-2.91,3.49 -2.28,3.24 -6.77,4.48 0.16,-9.08 7.34,-29.42 9.9,-35.76 9.32,-23.03 1.21,-27.88 3.31,-36.34 1.52,-6.14 4.51,-7.91 5.47,-16.47 2.15,-19.15 10.18,-36.36 11.94,-55.85 -4.97,2.94 -3.05,6.93 -7.69,8.85 -3.45,-5.37 1.66,-18.14 3.22,-23.96 0.67,-2.5 0.87,-4.96 1.41,-7.53 0.65,-3.16 1.71,-5.35 2.17,-7.32l9.06 -36.38c1.95,-12.13 10.57,-41.34 7.65,-45.72 -4.04,1.94 -0.68,-0.05 -3.16,5.07 -2.21,4.57 -0.71,3.23 -4.26,4.62l-1.21 -4.87c0.07,-1.71 0.51,-2.64 0.98,-4.04l6.46 -25.94c-9.22,5.71 -2.34,10.38 -13.05,14.36 0.11,-7.55 6.71,-22.15 3.1,-27.04 -4.41,3.4 -9.8,19.55 -13.62,25.35 -3.53,-1.26 -1.89,-2.38 -3.71,-6.12 -6.09,3.49 -3.81,1.88 -6.97,8.77l-15.62 29.12c-3.12,5.54 -7.03,13.57 -11.02,18.57 -4.41,5.52 -5.9,14.5 -10.94,19.3 -1.74,-2.15 -0.6,0.25 -1.39,-3.1 -0.96,-4.04 0,1.71 -0.3,-2.31 -0.01,-0.15 0.33,-4.11 0.34,-4.95 -4.5,1.58 -5.53,3.77 -7.54,8.4 -5.93,13.64 -11.94,27.56 -19.64,39.76 -5.26,8.32 -8.75,25.71 -16.02,27.66 -2.29,-8.34 6.69,-17.75 5.14,-26.21 -0.61,-3.31 0.05,-1.23 -1.42,-3.11 -4.64,2.91 -2.23,0.82 -4.39,6.25 -2.15,5.43 -5.88,17.98 -10.46,18.42 -1.32,-3.1 -0.27,-8.03 0.33,-10.73 0.01,-0.04 1.33,-6.29 1.33,-6.32 0.01,-3.36 -0.77,-1.77 -1.07,-4.4 -0.07,-0.66 -0.33,-0.79 -0.58,-1.12 -5.31,3.02 -1.39,3.66 -6.07,5.65 -0.22,-6.98 1.67,-20.54 3.25,-26.4l4.05 -18.18c0.43,-1.77 0.75,-4.74 1.04,-6.56 0.72,-4.66 1.83,-8.21 2.61,-12.4 2.27,-12.11 -2.18,-3.08 -3.22,-10.72 -0.21,-1.52 2.1,-7.76 2.77,-11.56 0.84,-4.75 0.86,-8.25 0.77,-13.18l-4.89 -1.08c-0.18,-11.49 3.42,-19.08 3.67,-31.25 -4.48,2.72 -3.53,5.88 -9.64,6.99l1.84 -23.92c-4.99,2.12 -6.38,12.8 -9.8,17.23 -6.01,-0.07 -3.77,-1.72 -9.77,-2.19 -8.14,10.38 -12.66,29.35 -18.7,41.55 -2.66,-1.04 -1.97,-3.67 -3.71,-6.23 -9.57,8.07 -5.6,21.55 -15.85,24.83 -0.2,-7.01 0.84,-15.77 -1.24,-20.99 -5.12,-12.9 -2.62,-47.59 -2.71,-62.94 -0.09,-15.8 0.28,-7.46 -4.06,-18.13 -3.11,-7.64 -1.86,-52.34 -2.16,-62.41 -3.41,1.21 -3.77,1.79 -4.6,5.3 -1.47,6.21 1.67,5.03 -2.79,7.17 -0.17,-0.26 -0.33,-0.65 -0.39,-0.86 -0.07,-0.21 -0.28,-0.63 -0.36,-0.89l-0.48 -2.01c-1.3,-8.58 1.36,-20.63 -1.48,-28.24 -3.72,1.71 -3.53,7.37 -4.28,11.82 -0.63,3.73 -1.09,10.23 -2.42,13.48 -6.22,15.26 -7.9,33.82 -11.77,49.78 -1.76,7.26 -1.68,20.1 -6.05,24.73 -3.81,-3.3 -1.87,-4.8 -6.19,-6.5 -1.32,1.44 -2.57,-2.12 -1.24,2.8l-2.23 4.03c-3.15,8.75 1.32,7.08 -5.77,10.44 -2.14,-6.47 -5.4,-65.04 -8.09,-71 -2.45,-6.24 -1.15,0.02 -5.36,-4.71 -2.2,-2.48 -7.98,-58.69 -7.01,-59.75 0.62,-0.67 1.86,-1.16 3.6,-1.5l-0.01 -0 -10.85 -55.18 -1.4 -0.01c-4.72,-0.02 -9.4,-0.03 -14.08,-0.02l-8.73 55.97c0.44,11.56 -4.86,34.83 -7.57,47.2 -2.14,9.78 -1.26,5.74 -8.26,8.75l-10.14 49.12c-0.99,3.16 -2.29,13.52 -2.62,17.61l-7.62 -0.24c-0.33,0.04 -1.8,0.48 -2.33,0.61 -0.32,0.08 -2.06,0.7 -3.44,0.84l-1.3 -10.57c-3.41,-6.04 -1.88,8.4 -8.9,-17.8l-5.29 -20.8c-2.97,1.73 -2.5,1.78 -4.94,3.8 -4.63,-10.29 -3.11,-17.42 -8.85,-18.5 -2.68,6.23 -0.94,66.66 -1.35,79.2 -7.86,-2.22 -3.16,-7.37 -6.07,-13.39 -8.19,3.55 -0.15,42.25 -3.22,48.57 -0.13,0.26 -0.36,0.53 -0.5,0.77 -2.34,4.07 -2.55,0.13 -2.67,8.6l-0.59 32.87c-0.05,-0.17 -0.25,0.65 -0.45,0.94 -6.66,-3.84 -1.88,-3.53 -5.23,-11.2 -2.07,-4.74 -5.54,-11.48 -9.85,-14.81 -6.44,-4.97 -5.11,-7.69 -8.39,-11.42 -2.42,-2.76 -7.99,2.73 -16.95,-18.8 -0.12,-0.28 -0.26,-0.6 -0.38,-0.87l-7 -14.23 -5.03 3.82 -7.95 -14.37c-3.4,-4.32 -4.24,-12.11 -9.3,-14.4 0.18,16.37 8.43,32.37 8.53,46.48 -3.07,1.83 -8.83,1.79 -8.13,7.43 4,8.35 4.31,-2.91 6.47,14.59 0.59,4.81 3.65,12.29 1.33,16.2 -2.53,-1.05 -1.17,-1.23 -2.96,-3.04 -4.09,-4.11 2.16,-0.19 -2.05,-1.83l6.72 40.78c0.86,6.2 7.52,27.13 7.24,38.72 -4.57,-1.78 -2.33,-0.77 -5.02,-5.46 -2.21,-3.86 -0.89,-2.55 -3.96,-4.65 -0.06,2.23 0.17,5.51 0.02,7.46l-1.22 4.72c-4.78,-3.39 -3.97,-13.59 -9.9,-14.06 -1.46,3.51 0.46,7.68 0.64,12.51 -7.91,-0.4 -8.47,-5.26 -13.02,-10.36 -2.42,1.52 -3.56,4.96 -5.69,6.66 -1.46,-11.34 -10.66,-20.35 -13.46,-31.22 -16.37,-0.17 -1.84,-10.29 -19.1,-11.67 -1.66,-10.45 -10.46,-19.19 -14.91,-28.43 -2.29,-4.75 -5.04,-9.29 -7.79,-14.47 -2.66,-5.03 -4.11,-9.89 -6.46,-14.82 -6.32,-13.24 -5.42,-2.26 -10.82,-11.53 -2.87,-4.93 -5.69,-6.3 -9.17,-10.41l-2.84 -4.69c-1.31,-2.15 -0.83,-1.57 -2.09,-2.7 -3.79,-3.37 -7.91,-6 -10.55,-10.58 -2.53,-4.39 0.08,-2.84 -3.56,-5.82 -2.68,5.27 6.61,34.16 9.9,41.8 1.28,2.97 3.95,5.8 3.55,9.47 -0.33,3.04 0.13,1.02 -1.08,2.7 -5.28,-3.59 -1.88,-5.51 -8.66,-6.99 -2.31,5.03 0.96,6.47 2.26,11.97l8.71 42.44c1.14,6.14 1.64,8.52 3.17,13.99 2.79,9.97 7.79,31.62 7.94,41.37 -4.29,-1.38 -4.54,-5.35 -6.2,-9.66 -1.69,-4.39 -2.81,-7.26 -6.14,-10.34 0.07,9.06 6.82,35.22 9.49,44.39l5.98 19.41c2.01,7.55 2.9,14.16 4.79,21.6 4.14,16.29 0.1,14.4 1.42,23.37 0.45,3.06 2.54,7.29 3.61,9.78 3.33,7.76 5.33,21.13 8.62,30.01 2.81,7.6 5.52,9.62 5.63,19.73 -4.33,-1.88 -18,-23.98 -21.99,-29.61 -13.95,-19.68 -29.6,-38.09 -43.36,-58.13 -10.55,-15.36 -22.54,-28.25 -33.94,-42.64 -1.98,-2.5 -2.7,-4.44 -4.76,-7.54l-26.28 -37.07c-3.04,-4.49 -3.34,-2.87 -6.62,-6.84l-7.7 -9.66c-0.15,-0.2 -0.38,-0.48 -0.52,-0.68l-17.99 -26.71c-3.99,-5.7 -7.59,-8.11 -7.98,-15.41l-30.27 -58.42c-1.91,2.19 -3.81,4.4 -5.69,6.62l28.53 82.25c1.88,4.63 3.54,9.48 5.11,12.7 2.28,4.67 3.15,8.46 5.42,13.13 2.44,5 3.26,6.04 5.27,12.02 4.68,13.9 30.97,73.55 37.11,86.63 5.62,11.96 9.8,25.04 16.55,36.48 3.4,5.75 16.49,43.81 20.42,50.28l37.44 87.13c1.22,7.54 0.82,7.76 3.33,14.18l19.15 51.6c1.88,4.83 2.83,7.64 4.78,12.57 2.02,5.11 4.17,6.08 4.01,12.57 -6.12,-1.56 -3.16,-4.1 -8.67,-7.77l-9.61 -7.82c-1.41,-1.33 -2.87,-2.64 -4.55,-4.04 -1.74,-1.44 -0.86,-0.51 -2.73,-2.28 -5.97,-5.64 -6.92,-2.67 -12.36,-7.45l-16.92 -17.74c-3.37,-3.31 -5.03,-4.94 -8.92,-8.4 -3.56,-3.17 -3.58,-5.65 -9.96,-6.04 0.33,8.65 16.42,33.65 21.76,43.89 5.39,10.32 4.25,3.54 3.57,15.83 -0.32,5.77 4.5,9.55 7.46,13.73 2.39,3.37 6,9.06 8.08,13.03 4.47,8.53 15.29,21.32 15.21,26.75 -8.09,-0.24 -2.32,-5.8 -11.85,-6.65l0.79 10.25c-4.28,-1.63 -7.18,-5.49 -10.39,-9.24l-17.54 -18.34c-3.85,-4.1 -3.91,-5.79 -9.67,-7.35 0.85,14.42 27.11,43.88 28.18,59.02 -4.45,-1.62 -12.71,-12.22 -14,-16.58 -4.67,2.47 4.84,-3.77 -1.96,1.94 -1.49,1.25 0.57,0.54 -2.44,1.72l-9.9 -7.5c-2.2,0.86 -2.36,3.16 -4.16,4.98 -8.43,-13.58 -26.55,-27.39 -38.33,-38.24 -3.74,0.4 -3.39,1.33 -5.77,2.64l-2.2 -2.28c-3.5,-3.58 -9.69,-10.02 -14.94,-10.62 0.13,5.5 3.99,8.18 1.05,12.5 -6.16,-3.18 -13.24,-14.08 -18.52,-18.99 -4.68,-4.35 -13.8,-15.67 -19.45,-15.69 1.8,7.46 15.91,26.96 20.84,35.34 3.62,6.16 8.14,11.62 10.7,17.84 5.02,12.18 8.95,11.55 10.35,18.61 -6.55,-0.83 -3.12,-1.84 -8.6,-2.58 0.71,8.34 21.59,33.41 26.79,42.15 5.33,8.97 7.14,11.69 14.07,20.42 4.03,5.08 10.8,15.38 13.84,21.34 -1.55,4.08 -3.44,2.2 -4.42,4.47 -1.1,2.52 -0.17,1.59 0.8,3.51 5.2,10.34 17.22,20.08 18.49,32.12 -4.87,-0.76 -14.62,-8.54 -20.22,-11.73 -16.48,-9.39 -11.38,0.22 -22.51,-5.99 -4.68,-2.61 -8.26,-6.06 -13.84,-6.55 1.2,5.4 2.09,4.36 5.9,8.29 2.03,2.09 4.14,4.33 5.98,6.42l24.83 27.16c3.81,4.08 9.99,7.63 10.44,13.8 -5.14,-0.79 -1.08,-0.03 -4.59,-2.3 -3.86,-2.48 -1.43,-1.45 -5.85,-2.96 1.22,7.79 8.38,11.8 14.03,17 5.6,5.15 10.19,10.18 14.82,14.88 9.21,9.37 19.79,20.83 28.5,29.68 9.94,10.1 19.61,18.03 29.24,28.88 4.4,4.96 9.77,10.17 14.45,15.26 4.76,5.19 10.47,8.69 13.4,14.81 -10.67,0.19 -13.42,-9.42 -22.12,-9.71 -1.97,3.45 -0.64,4.12 -2.47,6.89 -7.49,-1.32 -9.1,-6.64 -17.77,-6.18 -0.22,6.04 2.92,6.42 6.47,10.48 2.7,3.08 4.54,6.27 7.56,9.87 8.53,10.14 17.56,18.17 25.48,28.78 5.42,7.26 17.69,17.47 22.28,24.83l0 0 58.21 13.84c2.34,-7.28 6.27,-16.94 7.97,-20.49 7.45,-15.55 3.74,1.68 4.63,-23.6 0.32,-8.99 2.5,-20.97 3.53,-29.81 1.06,-9.12 5.22,-18.9 4.97,-26.8l-5.78 -2.74c-0.94,-11.39 2.04,-11.45 -3.18,-20.36 -4.2,-7.15 0.89,-8.83 1.16,-18.44 -5.56,1.02 -4.44,2.34 -10.07,2.67 -0.12,-8.32 1.67,-4.62 2.82,-9.26 1.77,-7.11 -0.11,-2.28 -1.92,-4.08l-1.45 -1.2c-3.35,-4.6 1.93,-5.51 4.88,-6.45 3.48,-1.11 6.02,-1.1 10.29,-1.57l-1.26 -8.13c7.98,0.04 13.83,1.74 13.08,-7.44 -2.72,-1.38 -2.9,-0.16 -5.1,-1.7 -4.39,-3.06 -0.45,-0.42 -3.16,-4.58 -4.3,-6.6 -5.14,0.13 -6.64,-7.33 2.84,-1.87 6.69,-1.82 10.26,-2.92 4.57,-1.41 7.31,-2.43 12.53,0.39l3.18 1.87c0.23,0.15 0.52,0.37 0.74,0.53 2.62,1.85 2.94,2.96 6.82,3.37 -0.12,-6.81 -12.62,-13.91 -17.97,-16.84 0.01,-3.95 1.9,-8.08 3.2,-11.51 8.33,0.5 3.07,1.74 9.04,3.55 1.48,-3.09 0.91,-5.56 3.09,-10.07 6.49,-13.4 -10.23,-3.15 3.28,-23.91 0.15,-0.23 0.33,-0.54 0.48,-0.76l1.49 -2.22c3,-3.88 3.75,-2.58 6.4,-7.09 6.33,-10.79 5.47,-21.44 6.32,-33.42 6.93,-4.18 4.92,-2.26 7.65,-10.81 1.43,-4.5 4.42,-8.46 5.57,-12.66 -1.87,-6.34 -4.71,-1.16 -4.65,-11.14 3.77,-5.27 9.23,-5.03 9.8,-13.6 0.48,-7.12 2.04,-11.94 5.68,-16.81 3.87,-5.18 2.46,-12.2 3.84,-18.23 1.18,-5.15 3.15,-13.91 3.28,-19.42l-3.81 -1.55c-1.53,-0.53 -1.33,0.01 -3.63,-1.09 -0.36,-8.08 1.94,-17.91 -8.1,-12.89 -1.66,0.83 2.15,1.78 -4.87,1.01 -0.93,-6.99 -2.74,-9.97 -0.33,-14.49 2.42,-4.53 6.4,-7.33 3.14,-11.9 -6.18,0.9 -1.16,-1.07 -4.45,3.07 -3.24,4.08 -2.8,8.23 -5.82,12.66 -6.06,8.86 -26.93,20.89 -37.33,26.02l-13.85 5.53c-3.58,1.26 -1.94,1.27 -4.11,2.35 -5.55,2.78 -4.74,0.5 -10.96,1.24 -5.52,0.66 -23.65,6.25 -28.86,9.64 -7.47,4.86 -22.31,6.74 -22.55,-5.31 -1.61,-8.57 -8.4,-18.26 0.46,-25.39 3.53,-2.84 1.04,-0.53 3.87,-3.72 5.91,-6.66 8.75,-4.33 14.55,-5.13 4.23,-0.58 2.22,-1.01 5.8,-1.71 4.68,-0.92 5.21,1.57 8.81,3.54 15.26,8.36 17.74,-2.08 18.97,-4.46 16.95,-0.81 15.52,-6.68 22.97,-13.71l5.72 -7.06c4.08,-7.58 3.34,-1.88 5.4,-8.43 1.17,-3.71 0.28,-3.17 2.26,-7.23 4.87,-9.98 -1.95,-18.87 1.74,-31.51 6.9,-23.62 2.44,-15.31 1.19,-30.78 -0.79,-9.73 2.7,-22.56 7.64,-28.54 5.22,-6.31 19,-9.02 28.56,-9.34 19.87,-0.65 8.69,-6.98 29.73,-5.98 7.71,0.37 10.08,0.03 14.97,-3.21 3.48,-2.3 6.96,-4.56 6.42,-10.22l-9.98 0.08c0.75,-3.01 1.23,-4.66 1.1,-8.53l-26.65 0.97c2.05,-5.79 -1.04,-1.33 4.45,-5.67 9.06,-7.17 2.91,-7.42 -3.95,-14.93l-11.52 -25.93c-4.48,-13.28 -4.41,-4.18 -5.66,-14.8 5.17,0.26 4.89,0.07 9.2,1.54 4.42,1.51 0.6,1.92 7.35,1.44 0.13,-4.93 -3.25,-11.23 -3.65,-20.42 -0.36,-8.26 0.86,-15.25 1.14,-24.1 11.72,0.35 6.54,4.74 14.27,7.21 4.16,-6.28 -0.26,-7.65 7.8,-23.31l1.42 -4.45c1.97,-8.51 8.05,-13.18 9.76,-20.23l2.06 -8.43c7.43,1.78 0.62,2.56 8.9,6.24 1.61,0.72 0.54,-0.24 2.67,1.04 4.65,2.79 4.25,11.96 12.54,-0.22 4.7,-6.9 8.68,-8.28 10.85,-13.88 2.66,-6.88 -0.34,-7.52 6.48,-7.45 0.82,4.06 5.01,9.72 7.43,14.01 2.39,4.24 4.43,11.46 8.06,12.8 2.53,-3.51 1.03,-3.33 2.47,-6.85 3.32,1.11 2.39,3.33 5.25,6.67 1.27,1.48 0.84,0.77 2.05,1.79 3.73,3.13 4.24,5.06 6.37,9.54 4.62,9.76 3.47,15.37 1.95,26.7 9.7,-0.63 1.99,-1.55 9.29,-2.91l-0.47 24.93c8.48,-1.17 4,-3.38 11.18,-4.97 0.48,7.93 2.02,31.02 -0.59,37.16 -2.64,6.2 -14.39,18.24 -15.55,25.63 2.92,3.26 1.31,1.21 5.13,3.79 5.75,3.88 2.45,-0.22 4.58,4.87l-26.74 10.03c-6.93,0.75 -10.74,-1.98 -10.82,4.86 -0.03,3.13 2.34,4.35 4.71,6.03 3.37,2.4 5.1,4.63 7.88,7.04l6.76 4.36c5.44,4.3 -1.84,-0.76 1.94,1.74 5.02,3.32 17.37,-1.52 26.6,1.63 11.54,3.94 28.02,-7.31 38.18,1.73 15.66,13.95 5.14,32.25 5.62,49.18 0.28,9.89 -0.38,21.49 0.27,31.04 0.43,6.27 3.83,10.78 4.63,25.59 10.69,3.25 9.75,6.5 15.56,15.43 4.86,7.46 9.63,8.21 16.06,13.59 6.36,5.31 3.3,1.61 10.99,3.79 9.86,2.78 11.03,16.26 27.59,-2.7 5.79,-0.37 7.53,0.7 12.37,2.58 7.02,2.72 8.92,7.92 7.57,17.1l-14.98 23.6c-7.65,8.67 -34.22,-4.17 -44.58,-7.56 -10.83,-3.55 -9.98,2.28 -18.76,-3.56 -7.58,-5.04 -16.45,-5.1 -24.61,-8.83 -4.85,-2.22 -16.94,-14.14 -19.96,-18.2 -3.45,-4.65 -1.67,-8.77 -5.25,-14.62 -4.1,-6.7 -1.04,-9.94 -3.85,-16.06l-4.72 -9.98c-1.74,-2.61 -0.41,-1.16 -2.62,-2.27 -4.78,-2.41 -2.86,2.1 -6.07,-3.64l-3.25 -5.94c-4.82,1.01 -7.69,2.92 -7.33,8.93 5.54,2.7 4.51,-1.39 6.89,4.08 3.22,7.39 4.27,16.38 7.53,23.51 3.32,7.29 0.96,11.1 2.81,18.54 1.65,6.64 1.01,10.58 2.05,17.96 -3.85,-0.64 -5.16,-1.61 -9.48,-1.65l-1.96 5.76c-1.23,3.15 -1.17,1.47 -1.41,5.98 -0.3,5.63 -0.11,11.92 1.84,16.62 1.31,3.17 2.06,6.75 4.26,9.22 2.24,2.52 6.9,3.6 9.49,5.18 0,7.71 -3.81,7.84 -3.83,13.62 -0.01,5.11 4.04,8.24 4.55,13.65 0.9,9.53 -4.35,5.55 2.17,13.26 5.77,6.82 2.95,5.46 3.87,14.7 5.11,-0.47 2.58,-1.32 9.17,-1.7 0.09,8.72 1.11,7.09 -3.32,12.08 -2.14,2.41 -3.25,3.16 -3.02,8.11l10.37 0.1 2.81 6.25c2.96,2.7 14.92,3.45 -0.11,10.25 -0.81,4.82 0.78,7.71 2.31,11.23 3.87,8.9 15.83,7.85 17.55,20 -3.76,-0.25 -29.12,-8.67 -12.64,18.17l13.42 10.11c4.15,2.09 6.55,0.24 10.76,1.74l3.93 2.41c3.25,1.42 10.9,-0.48 14.56,-2.5 5.74,-3.18 0.18,-1.84 5.58,-5.5 6.69,0.03 6.8,1.63 9.06,6.22 -0.77,5.51 -2.22,4.4 -3.4,7.96 -2.55,7.71 2.38,18.54 -6.9,22.99 -5.37,-3.04 -0.21,-6.5 -10.66,-4.68 -0.86,14.56 -0.5,16.06 2.91,28.2 3.76,13.34 0.39,11.6 0.46,26.18 -4.82,3.65 -8.67,4.45 -13.4,7.21 -0.54,9.03 3.04,23.04 4.78,31.76 7.12,35.45 0.84,41.28 17.68,74.07 1.84,3.57 6.57,8.6 3.17,11.95l60.21 -24.5 45.87 -51.56c6.14,-6.42 13.12,-9.09 13.1,-19.87 -3.48,1.21 -1.24,0.19 -3.39,2.36 -11.78,11.93 -0.16,-0.28 -13.97,10.86l-6.03 2.84c0.8,-4.56 2.41,-2.76 4.82,-8.83 2.07,-0.56 5.54,-4.66 6.97,-6.8 2.23,-3.34 3.53,-6.79 1.32,-11.06 -6.7,1.12 -1.44,1.56 -5.07,7.28 -0.95,1.5 -18.79,13.23 -22.94,11.19l39.21 -37.11c3.39,-2.83 1.22,-1.3 3.91,-4.7 9.87,-12.48 23.33,-17.49 24.77,-25.3 -6.55,1.77 -2.03,2.92 -11.56,2.65l2.14 -6.44c5.64,-1.15 6.81,-3.31 10.54,-6.83l52.52 -50.29c4.21,-4.3 6.18,-3.57 9.53,-9.35 -0.3,-0.21 -0.83,-0.75 -1.01,-0.45 -0.18,0.29 -0.76,-0.34 -1,-0.42l-5.33 -1.6c0.62,-5.92 9.25,-11.63 14.89,-18.01 4.98,-5.64 15.81,-15.59 13.76,-17.28 -2.03,-1.67 -3.81,-0.9 -10.64,4.28 -1.65,1.25 -9.04,6.98 -10.08,8.43 -3.99,-3.22 -2.46,0.24 -2.47,-5.88 1.69,-1.06 3.35,-3.04 4.52,-4.28 4.07,-4.33 3.03,-1.32 3.98,-7.57 -7.17,1.33 -12.02,8.08 -23.07,14.29 -5.76,1.5 -5.24,2.27 -9.61,4.29 -9.1,4.2 -3.56,-2.82 -17.77,7.83 -4.63,3.47 -4.55,4.26 -10.69,5 1.98,-8.69 0.6,-1.72 8.04,-12.37 3.47,-4.98 4.07,-6.34 7.5,-12.45 7.34,-13.02 -0.67,-5.84 8.97,-19.5l10.88 -17.64c2.99,-4.63 4.84,-7.9 7.72,-11.97 2.88,-4.08 4.78,-7.95 7.33,-12.61 1.41,-2.58 2.2,-4.02 4.03,-5.82 9.78,-9.63 9.94,-17.51 24.45,-37.28l26.97 -46.16c3.11,-5.14 10.07,-10.81 10.24,-19.41 -7.58,1.37 -17.5,18.9 -21.83,17.24 0.96,-3.15 0.7,-2.1 1.38,-6.18 2.96,-3.9 12.05,-16.37 12.77,-20.8 -5.64,0.59 -9.79,6.9 -13.02,10.15l-37.71 30.31c-7.33,6.23 -45.54,37.06 -48.11,40.81 -3.61,1.26 -3.93,1.96 -7.11,2.36 -2.8,-14.58 2,-9.81 10.71,-27.97l1.67 -3.44c0.13,-0.25 0.31,-0.56 0.44,-0.82 5.61,-10.68 11.1,-25.13 18.17,-32.84l45.58 -89.22c0.86,-1.26 0.83,-1.22 1.5,-2.19l49.3 -90.51c2.38,-4.16 3.94,-6.73 6.22,-10.96 6.89,-12.77 16.94,-34.31 22.87,-42.88 1.8,-2.61 0.93,-1.17 2.82,-4.44 7.22,-12.49 4.62,-10.11 8.25,-16.69l2.82 -5.33 37.94 -74.77zm-644.91 762.7l0.34 -0.51c3.81,-5.69 9.07,-10.13 12.81,-14.51 6.23,-7.31 3.8,-11.3 6.84,-20.37 1.59,-4.74 1.87,-5.94 3.84,-9.75 4.52,-8.75 7.45,-20.26 11.06,-29.79 2.74,-7.23 4.39,-13.27 7.48,-19.8 6.16,-13.01 0.44,-11.61 18.46,-22.3 16.41,-9.73 11.99,-7.63 11.5,-26.74 -0.34,-13.15 -2.09,-14.84 5.64,-21.76 8.59,-7.68 5.11,-8.78 5.07,-21.65 -0.04,-13.91 6.9,-8.97 8.82,-18.77 2.77,-14.17 -1.92,-12.64 6.7,-27.02l6.93 -14.04c1.82,-4.39 1.4,-5.39 4.04,-9.49 2.29,-3.54 2.35,-6.23 6.27,-7.21 3.37,2.39 1.46,3.03 3.95,6.92 2.7,4.21 3.64,2.66 6.64,5.86l4.9 6.2c16.52,23.12 6.67,43.33 10.86,50.19 1.65,1.25 3.74,2.08 5.04,3.22 2.08,1.83 2.25,3.04 4.46,5.51 6.44,7.18 4.04,3.99 4.25,13.61 0.19,8.97 15.93,12.33 14.74,21.71 -1.31,10.4 -7.7,21.85 1.29,31.06 1.94,1.99 4.45,3.14 5.55,4.3l5.14 8.48c3.35,3.75 4.12,7.21 6.65,9.4 6.01,5.22 5,-1.34 8.47,9.9 6.95,22.5 10.71,34.15 21.34,55.61l19.99 34.98 -19.1 2.91c-1.65,-5.11 -4.22,-11.75 -5.29,-13.71 -5.37,-9.76 -37.35,-25.6 -40.71,-33.52 7.02,0.46 2.82,1.17 10.4,0.48 7.99,-0.73 2.26,0.79 9.85,2.25 -1.26,-6.1 -3.49,-5.82 -7.33,-9.43 -5.47,-5.14 -1.22,-3.01 -9.52,-7.8 -5.09,-2.94 -21.03,-18.43 -26.07,-23.5 -2.13,-2.15 -6.3,-14.11 -16.46,-18.42 -5.63,-2.38 -6.88,1.33 -12.72,3.4 -1.79,21.78 -2.17,-2.15 -22.62,15.69 -10.09,8.8 -7.21,4.3 -9.58,11.23 -2.41,7.04 -1.42,2.55 -11.5,11.01 -3.57,3 -4.31,3.24 -8.22,5.6 -5.98,3.6 -1.66,0.41 -1.21,8.48 -3.1,1.73 -8.73,7.54 -9.63,10.91 1.48,0.82 1.7,0.57 2.98,1.35l2.34 1.7c0.18,0.14 0.54,0.42 0.78,0.67l-4.11 4.99c-3.68,3.78 -14.66,9.15 -17.26,12.45l-9.09 11.96c-0.17,0.19 -0.4,0.48 -0.56,0.67 -2.81,3.09 -4.21,3.55 -5.15,4.37l-29.27 -6.96z"/>
 </g>
</svg>
