<?xml version="1.0" encoding="UTF-8"?>
<!DOCTYPE svg PUBLIC "-//W3C//DTD SVG 1.1//EN" "http://www.w3.org/Graphics/SVG/1.1/DTD/svg11.dtd">
<!-- Creator: CorelDRAW 2021 (64-Bit) -->
<svg xmlns="http://www.w3.org/2000/svg" xml:space="preserve" width="61.5652mm" height="60.3076mm" version="1.1" style="shape-rendering:geometricPrecision; text-rendering:geometricPrecision; image-rendering:optimizeQuality; fill-rule:evenodd; clip-rule:evenodd"
viewBox="0 0 48223.54 47238.47"
 xmlns:xlink="http://www.w3.org/1999/xlink"
 xmlns:xodm="http://www.corel.com/coreldraw/odm/2003">
 <defs>
  <style type="text/css">
   <![CDATA[
    .fil0 {fill:#00A859}
   ]]>
  </style>
 </defs>
 <g id="Capa_x0020_1">
  <metadata id="CorelCorpID_0Corel-Layer"/>
  <g id="_2562503258400">
   <path class="fil0" d="M10159.06 18757.26l8163.08 0c1016.09,0 1847.39,831.31 1847.39,1847.39l0 6464.28 6464.28 0c1016.09,0 1847.39,831.31 1847.39,1847.39l0 8163.08c0,1016.09 -831.31,1847.39 -1847.39,1847.39l-6464.28 0 0 6464.28c0,1016.09 -831.31,1847.39 -1847.39,1847.39l-8163.08 0c-1016.09,0 -1847.39,-831.31 -1847.39,-1847.39l0 -6464.28 -6464.28 0c-1016.09,0 -1847.39,-831.31 -1847.39,-1847.39l0 -8163.08c0,-1016.09 831.31,-1847.39 1847.39,-1847.39l6464.28 0 0 -6464.28c0,-1016.09 831.31,-1847.39 1847.39,-1847.39z"/>
   <path class="fil0" d="M37347.92 12142.05l4845.45 0c603.13,0 1096.61,493.47 1096.61,1096.61l0 3837.04 3836.96 0c603.13,0 1096.61,493.47 1096.61,1096.53l0 4845.45c0,603.13 -493.47,1096.61 -1096.61,1096.61l-3836.96 0 0 3837.04c0,603.13 -493.47,1096.53 -1096.61,1096.53l-4845.45 0c-603.13,0 -1096.53,-493.4 -1096.53,-1096.53l0 -3837.04 -3837.04 0c-603.13,0 -1096.61,-493.47 -1096.61,-1096.61l0 -4845.45c0,-603.06 493.47,-1096.53 1096.61,-1096.53l3837.04 0 0 -3837.04c0,-603.13 493.4,-1096.61 1096.53,-1096.61z"/>
   <path class="fil0" d="M23336.86 0l4580.3 0c570.16,0 1036.61,466.45 1036.61,1036.53l0 3627.11 3627.03 0c570.08,0 1036.53,466.45 1036.53,1036.53l0 4580.3c0,570.16 -466.45,1036.61 -1036.53,1036.61l-3627.03 0 0 3627.03c0,570.08 -466.45,1036.53 -1036.61,1036.53l-4580.3 0c-570.08,0 -1036.53,-466.45 -1036.53,-1036.53l0 -3627.03 -3627.11 0c-570.08,0 -1036.53,-466.45 -1036.53,-1036.61l0 -4580.3c0,-570.08 466.45,-1036.53 1036.53,-1036.53l3627.11 0 0 -3627.11c0,-570.08 466.45,-1036.53 1036.53,-1036.53z"/>
  </g>
 </g>
</svg>
